<?xml version="1.0" ?><!DOCTYPE svg  PUBLIC '-//W3C//DTD SVG 1.1//EN'  'http://www.w3.org/Graphics/SVG/1.1/DTD/svg11.dtd'><svg enable-background="new 0 0 128 128" id="Layer_1" version="1.1" viewBox="0 0 128 128" xml:space="preserve" xmlns="http://www.w3.org/2000/svg" xmlns:xlink="http://www.w3.org/1999/xlink"><circle cx="64" cy="64" fill="#4B5F83" id="circle" r="64"/><g id="icon"><path d="M95,89H33c-2.2,0-4-1.8-4-4V43c0-2.2,1.8-4,4-4h62c2.2,0,4,1.8,4,4v42C99,87.2,97.2,89,95,89z" fill="#FFFFFF" id="base"/><path d="M95,39H33c-2.2,0-4,1.8-4,4v1v1v4h4h62h4v-4v-1v-1C99,40.8,97.2,39,95,39z" fill="#22A7F0" id="top"/><path d="M39,45L39,45c-1.1,0-2-0.9-2-2v-8c0-1.1,0.9-2,2-2h0c1.1,0,2,0.9,2,2v8C41,44.1,40.1,45,39,45   z" fill="#22313F" id="line_1_"/><path d="M89,45L89,45c-1.1,0-2-0.9-2-2v-8c0-1.1,0.9-2,2-2l0,0c1.1,0,2,0.9,2,2v8C91,44.1,90.1,45,89,45z   " fill="#22313F" id="line"/><g id="_x30_4"><path d="M38,84h-3c-1.1,0-2-0.9-2-2v-2c0-1.1,0.9-2,2-2h3c1.1,0,2,0.9,2,2v2C40,83.1,39.1,84,38,84z" fill="#E6E6E6" id="day_27_"/><path d="M47,84h-3c-1.1,0-2-0.9-2-2v-2c0-1.1,0.9-2,2-2h3c1.1,0,2,0.9,2,2v2C49,83.1,48.1,84,47,84z" fill="#E6E6E6" id="day_26_"/><path d="M56,84h-3c-1.1,0-2-0.9-2-2v-2c0-1.1,0.9-2,2-2h3c1.1,0,2,0.9,2,2v2C58,83.1,57.1,84,56,84z" fill="#E6E6E6" id="day_25_"/><path d="M65,84h-3c-1.1,0-2-0.9-2-2v-2c0-1.1,0.9-2,2-2h3c1.1,0,2,0.9,2,2v2C67,83.1,66.1,84,65,84z" fill="#E6E6E6" id="day_24_"/><path d="M74,84h-3c-1.1,0-2-0.9-2-2v-2c0-1.1,0.9-2,2-2h3c1.1,0,2,0.9,2,2v2C76,83.1,75.1,84,74,84z" fill="#E6E6E6" id="day_23_"/><path d="M83,84h-3c-1.1,0-2-0.9-2-2v-2c0-1.1,0.9-2,2-2h3c1.1,0,2,0.9,2,2v2C85,83.1,84.1,84,83,84z" fill="#E6E6E6" id="day_22_"/></g><g id="_x30_3"><path d="M38,76h-3c-1.1,0-2-0.9-2-2v-2c0-1.1,0.9-2,2-2h3c1.1,0,2,0.9,2,2v2C40,75.1,39.1,76,38,76z" fill="#E6E6E6" id="day_20_"/><path d="M47,76h-3c-1.1,0-2-0.9-2-2v-2c0-1.1,0.9-2,2-2h3c1.1,0,2,0.9,2,2v2C49,75.1,48.1,76,47,76z" fill="#E6E6E6" id="day_19_"/><path d="M56,76h-3c-1.1,0-2-0.9-2-2v-2c0-1.1,0.9-2,2-2h3c1.1,0,2,0.9,2,2v2C58,75.1,57.1,76,56,76z" fill="#E6E6E6" id="day_18_"/><path d="M65,76h-3c-1.1,0-2-0.9-2-2v-2c0-1.1,0.9-2,2-2h3c1.1,0,2,0.9,2,2v2C67,75.1,66.1,76,65,76z" fill="#E6E6E6" id="day_17_"/><path d="M74,76h-3c-1.1,0-2-0.9-2-2v-2c0-1.1,0.9-2,2-2h3c1.1,0,2,0.9,2,2v2C76,75.1,75.1,76,74,76z" fill="#E6E6E6" id="day_16_"/><path d="M83,76h-3c-1.1,0-2-0.9-2-2v-2c0-1.1,0.9-2,2-2h3c1.1,0,2,0.9,2,2v2C85,75.1,84.1,76,83,76z" fill="#E6E6E6" id="day_15_"/><path d="M92,76h-3c-1.1,0-2-0.9-2-2v-2c0-1.1,0.9-2,2-2h3c1.1,0,2,0.9,2,2v2C94,75.1,93.1,76,92,76z" fill="#E6E6E6" id="day_14_"/></g><g id="_x30_2"><path d="M38,68h-3c-1.1,0-2-0.9-2-2v-2c0-1.1,0.9-2,2-2h3c1.1,0,2,0.9,2,2v2C40,67.1,39.1,68,38,68z" fill="#E6E6E6" id="day_13_"/><path d="M47,68h-3c-1.1,0-2-0.9-2-2v-2c0-1.1,0.9-2,2-2h3c1.1,0,2,0.9,2,2v2C49,67.1,48.1,68,47,68z" fill="#E6E6E6" id="day_12_"/><path d="M56,68h-3c-1.1,0-2-0.9-2-2v-2c0-1.1,0.9-2,2-2h3c1.1,0,2,0.9,2,2v2C58,67.1,57.1,68,56,68z" fill="#E6E6E6" id="day_11_"/><path d="M65,68h-3c-1.1,0-2-0.9-2-2v-2c0-1.1,0.9-2,2-2h3c1.1,0,2,0.9,2,2v2C67,67.1,66.1,68,65,68z" fill="#E6E6E6" id="day_10_"/><path d="M74,68h-3c-1.1,0-2-0.9-2-2v-2c0-1.1,0.9-2,2-2h3c1.1,0,2,0.9,2,2v2C76,67.1,75.1,68,74,68z" fill="#E6E6E6" id="day_9_"/><path d="M83,68h-3c-1.1,0-2-0.9-2-2v-2c0-1.1,0.9-2,2-2h3c1.1,0,2,0.9,2,2v2C85,67.1,84.1,68,83,68z" fill="#E6E6E6" id="day_8_"/><path d="M92,68h-3c-1.1,0-2-0.9-2-2v-2c0-1.1,0.9-2,2-2h3c1.1,0,2,0.9,2,2v2C94,67.1,93.1,68,92,68z" fill="#E6E6E6" id="day_7_"/></g><g id="_x30_1"><path d="M56,60h-3c-1.1,0-2-0.9-2-2v-2c0-1.1,0.9-2,2-2h3c1.1,0,2,0.9,2,2v2C58,59.1,57.1,60,56,60z" fill="#E6E6E6" id="day_4_"/><path d="M65,60h-3c-1.1,0-2-0.9-2-2v-2c0-1.1,0.9-2,2-2h3c1.1,0,2,0.9,2,2v2C67,59.1,66.1,60,65,60z" fill="#E6E6E6" id="day_3_"/><path d="M74,60h-3c-1.1,0-2-0.9-2-2v-2c0-1.1,0.9-2,2-2h3c1.1,0,2,0.9,2,2v2C76,59.1,75.1,60,74,60z" fill="#E6E6E6" id="day_2_"/><path d="M83,60h-3c-1.1,0-2-0.9-2-2v-2c0-1.1,0.9-2,2-2h3c1.1,0,2,0.9,2,2v2C85,59.1,84.1,60,83,60z" fill="#E6E6E6" id="day_1_"/><path d="M92,60h-3c-1.1,0-2-0.9-2-2v-2c0-1.1,0.9-2,2-2h3c1.1,0,2,0.9,2,2v2C94,59.1,93.1,60,92,60z" fill="#E6E6E6" id="day"/></g></g></svg>